<svg width="32" height="32" viewBox="0 0 24 24" fill="none" xmlns="http://www.w3.org/2000/svg">
  <path d="M10.6066 11.5895C11.3892 12.35 12.6401 12.3431 13.4142 11.569L14.1213 10.8619C15.2929 9.69032 17.1924 9.69036 18.364 10.8619C18.9073 11.4053 19.1987 12.1052 19.2381 12.8164L20.1319 11.9226C21.8893 10.1652 21.8893 7.31598 20.1319 5.55862C18.3745 3.80126 15.5253 3.80126 13.7679 5.55862L10.5628 8.7639C9.81159 9.53964 9.8124 10.7734 10.5652 11.5481L10.6066 11.5895Z" fill="#DBC6EC"/>
  <path d="M17.6435 11.5557L17.6702 11.5825C18.4372 12.3638 18.4335 13.6186 17.659 14.3954L17.6569 14.3975L12.5035 19.5509C12.2254 19.8289 11.7747 19.8289 11.4966 19.5509L3.86831 11.9226C2.11095 10.1652 2.11095 7.31598 3.86831 5.55862C5.62567 3.80126 8.47492 3.80126 10.2323 5.55862L11.2929 6.61929L9.87868 8.03345C8.70711 9.20503 8.70711 11.1045 9.87868 12.2761C11.0503 13.4477 12.9497 13.4477 14.1213 12.2761L14.8285 11.569C15.6051 10.7925 16.8614 10.788 17.6435 11.5557Z" fill="#EFDFFC"/>
  <path fill-rule="evenodd" clip-rule="evenodd" d="M12.0001 5.9122L13.0608 4.85151C15.2087 2.70363 18.6911 2.70363 20.839 4.85151C22.9869 6.9994 22.9869 10.4818 20.839 12.6297L18.4193 15.0494L18.3678 15.1008C18.3665 15.102 18.3653 15.1033 18.364 15.1046L13.2106 20.258C12.542 20.9265 11.4581 20.9265 10.7895 20.258L3.16121 12.6297C1.01332 10.4818 1.01332 6.9994 3.16121 4.85151C5.30909 2.70363 8.7915 2.70363 10.9394 4.85151L12.0001 5.9122ZM12.5035 19.5509C12.2254 19.8289 11.7746 19.8289 11.4966 19.5509L3.86831 11.9226C2.11095 10.1652 2.11095 7.31598 3.86831 5.55862C5.62567 3.80126 8.47492 3.80126 10.2323 5.55862L11.2929 6.61929L9.87868 8.03345C8.70711 9.20503 8.70711 11.1045 9.87868 12.2761C11.0502 13.4477 12.9497 13.4477 14.1213 12.2761L14.8285 11.569C15.6095 10.788 16.8758 10.788 17.6569 11.569C18.4372 12.3494 18.4379 13.6141 17.659 14.3954C17.6583 14.3961 17.6576 14.3968 17.6569 14.3975L12.5035 19.5509ZM20.1319 11.9226L19.2381 12.8164C19.1987 12.1052 18.9073 11.4053 18.364 10.8619C17.1924 9.69036 15.2929 9.69032 14.1213 10.8619L13.4142 11.569C12.6332 12.35 11.3668 12.35 10.5858 11.569C9.80474 10.7879 9.80474 9.52161 10.5858 8.74056L13.7679 5.55862C15.5253 3.80126 18.3745 3.80126 20.1319 5.55862C21.8893 7.31598 21.8893 10.1652 20.1319 11.9226Z" fill="#1A1A1A"/>
</svg>
